<svg xmlns="http://www.w3.org/2000/svg" width="24" height="24" viewBox="0 0 24 24" fill="none" stroke="currentColor" stroke-width="2" stroke-linecap="round" stroke-linejoin="round" class="lucide lucide-flask-conical-icon lucide-flask-conical"><path d="M10 2v7.31a2 2 0 0 1-.367 1.156L4.36 18.077A2 2 0 0 0 4 19.266V20a2 2 0 0 0 2 2h12a2 2 0 0 0 2-2v-.734a2 2 0 0 0-.36-1.189l-5.273-7.611A2 2 0 0 1 14 9.31V2"/><path d="M8.5 2h7"/><path d="M14 9.31a2 2 0 0 1-.367 1.156L8.36 18.077A2 2 0 0 0 8 19.266V20"/></svg>
